solid gehäuse_verschluss_sketchup
facet normal 2.8199664825478903e-16 -1.4099832412739513e-15 1.0
  outer loop
    vertex 70.65931836200461 52.65049248981167 19.999999999999996
    vertex 65.6593183620046 53.445411489811654 20.0
    vertex 65.6593183620046 52.65049248981167 19.999999999999996
  endloop
endfacet
facet normal 2.8199664825478903e-16 -1.4099832412739513e-15 1.0
  outer loop
    vertex 65.6593183620046 53.445411489811654 20.0
    vertex 70.65931836200461 52.65049248981167 19.999999999999996
    vertex 70.65931836200461 53.445411489811654 19.999999999999996
  endloop
endfacet
facet normal -0.0 -1.0 -0.0
  outer loop
    vertex 93.65931836200461 52.65049248981167 20.0
    vertex 42.659318362004605 52.65049248981167 19.0
    vertex 93.65931836200461 52.65049248981167 19.0
  endloop
endfacet
facet normal -0.0 -1.0 -0.0
  outer loop
    vertex 42.659318362004605 52.65049248981167 19.0
    vertex 93.65931836200461 52.65049248981167 20.0
    vertex 70.65931836200461 52.65049248981167 19.999999999999996
  endloop
endfacet
facet normal -0.0 -1.0 -0.0
  outer loop
    vertex 42.659318362004605 52.65049248981167 19.0
    vertex 65.6593183620046 52.65049248981167 19.999999999999996
    vertex 42.659318362004605 52.65049248981167 20.0
  endloop
endfacet
facet normal -0.0 -1.0 -0.0
  outer loop
    vertex 65.6593183620046 52.65049248981167 19.999999999999996
    vertex 42.659318362004605 52.65049248981167 19.0
    vertex 70.65931836200461 52.65049248981167 19.999999999999996
  endloop
endfacet
facet normal 1.0 0.0 0.0
  outer loop
    vertex 42.659318362004605 52.65049248981167 19.0
    vertex 42.659318362004605 40.65049248981167 20.0
    vertex 42.659318362004605 40.65049248981167 19.0
  endloop
endfacet
facet normal 1.0 0.0 0.0
  outer loop
    vertex 42.659318362004605 40.65049248981167 20.0
    vertex 42.659318362004605 52.65049248981167 19.0
    vertex 42.659318362004605 52.65049248981167 20.0
  endloop
endfacet
facet normal -0.0 1.0 -0.0
  outer loop
    vertex 42.659318362004605 40.65049248981167 20.0
    vertex 93.65931836200461 40.65049248981167 19.0
    vertex 42.659318362004605 40.65049248981167 19.0
  endloop
endfacet
facet normal -0.0 1.0 -0.0
  outer loop
    vertex 93.65931836200461 40.65049248981167 19.0
    vertex 42.659318362004605 40.65049248981167 20.0
    vertex 93.65931836200461 40.65049248981167 20.0
  endloop
endfacet
facet normal 1.0 -0.0 -0.0
  outer loop
    vertex 94.65931836200461 53.65049248981167 15.0
    vertex 94.65931836200461 39.65049248981167 20.0
    vertex 94.65931836200461 39.65049248981167 15.0
  endloop
endfacet
facet normal 1.0 -0.0 -0.0
  outer loop
    vertex 94.65931836200461 39.65049248981167 20.0
    vertex 94.65931836200461 53.65049248981167 15.0
    vertex 94.65931836200461 53.65049248981167 20.0
  endloop
endfacet
facet normal -1.3793441393071034e-05 -2.3665258748614716e-05 0.9999999996248483
  outer loop
    vertex 88.3590744664093 39.65049248981154 14.999449957234868
    vertex 93.65931836200461 41.15049248981167 15.0
    vertex 88.35898247015875 41.149260879849535 14.999449974142584
  endloop
endfacet
facet normal -1.3793441393071034e-05 -2.3665258748614716e-05 0.9999999996248483
  outer loop
    vertex 93.65931836200461 41.15049248981167 15.0
    vertex 88.3590744664093 39.65049248981154 14.999449957234868
    vertex 94.65931836200461 39.65049248981167 15.0
  endloop
endfacet
facet normal -1.3793441393071034e-05 -2.3665258748614716e-05 0.9999999996248483
  outer loop
    vertex 93.65931836200461 41.15049248981167 15.0
    vertex 94.65931836200461 39.65049248981167 15.0
    vertex 93.65931836200461 52.65049248981167 15.0
  endloop
endfacet
facet normal -1.3793441393071034e-05 -2.3665258748614716e-05 0.9999999996248483
  outer loop
    vertex 93.65931836200461 52.65049248981167 15.0
    vertex 78.65931836200461 53.65049248981167 15.0
    vertex 78.65931836200461 52.65049248981167 15.0
  endloop
endfacet
facet normal -1.3793441393071034e-05 -2.3665258748614716e-05 0.9999999996248483
  outer loop
    vertex 78.65931836200461 53.65049248981167 15.0
    vertex 93.65931836200461 52.65049248981167 15.0
    vertex 94.65931836200461 53.65049248981167 15.0
  endloop
endfacet
facet normal -1.3793441393071034e-05 -2.3665258748614716e-05 0.9999999996248483
  outer loop
    vertex 94.65931836200461 53.65049248981167 15.0
    vertex 93.65931836200461 52.65049248981167 15.0
    vertex 94.65931836200461 39.65049248981167 15.0
  endloop
endfacet
facet normal 0.0 1.0 0.0
  outer loop
    vertex 42.659318362004605 52.65049248981167 16.0
    vertex 57.6593183620046 52.65049248981167 15.0
    vertex 42.659318362004605 52.65049248981167 15.0
  endloop
endfacet
facet normal 0.0 1.0 0.0
  outer loop
    vertex 57.6593183620046 52.65049248981167 15.0
    vertex 42.659318362004605 52.65049248981167 16.0
    vertex 78.65931836200461 52.65049248981167 15.0
  endloop
endfacet
facet normal 0.0 1.0 0.0
  outer loop
    vertex 78.65931836200461 52.65049248981167 15.0
    vertex 42.659318362004605 52.65049248981167 16.0
    vertex 93.65931836200461 52.65049248981167 15.0
  endloop
endfacet
facet normal 0.0 1.0 0.0
  outer loop
    vertex 93.65931836200461 52.65049248981167 15.0
    vertex 42.659318362004605 52.65049248981167 16.0
    vertex 93.65931836200461 52.65049248981167 16.0
  endloop
endfacet
facet normal 0.0 1.0 0.0
  outer loop
    vertex 57.6593183620046 52.65049248981167 15.0
    vertex 78.65931836200461 52.65049248981167 11.000000000000002
    vertex 57.6593183620046 52.65049248981167 11.000000000000002
  endloop
endfacet
facet normal 0.0 1.0 0.0
  outer loop
    vertex 78.65931836200461 52.65049248981167 11.000000000000002
    vertex 57.6593183620046 52.65049248981167 15.0
    vertex 78.65931836200461 52.65049248981167 15.0
  endloop
endfacet
facet normal -1.0 0.0 0.0
  outer loop
    vertex 42.659318362004605 52.65049248981167 16.0
    vertex 42.659318362004605 41.15049248981167 15.0
    vertex 42.659318362004605 41.15049248981167 16.0
  endloop
endfacet
facet normal -1.0 0.0 0.0
  outer loop
    vertex 42.659318362004605 41.15049248981167 15.0
    vertex 42.659318362004605 52.65049248981167 16.0
    vertex 42.659318362004605 52.65049248981167 15.0
  endloop
endfacet
facet normal 0.0 0.0 1.0
  outer loop
    vertex 78.65931836200461 52.65049248981167 11.000000000000002
    vertex 57.6593183620046 53.65049248981167 11.000000000000002
    vertex 57.6593183620046 52.65049248981167 11.000000000000002
  endloop
endfacet
facet normal 0.0 0.0 1.0
  outer loop
    vertex 57.6593183620046 53.65049248981167 11.000000000000002
    vertex 78.65931836200461 52.65049248981167 11.000000000000002
    vertex 78.65931836200461 53.65049248981167 11.000000000000002
  endloop
endfacet
facet normal 1.0 0.0 0.0
  outer loop
    vertex 57.6593183620046 53.65049248981167 11.000000000000002
    vertex 57.6593183620046 52.65049248981167 15.0
    vertex 57.6593183620046 52.65049248981167 11.000000000000002
  endloop
endfacet
facet normal 1.0 0.0 0.0
  outer loop
    vertex 57.6593183620046 52.65049248981167 15.0
    vertex 57.6593183620046 53.65049248981167 11.000000000000002
    vertex 57.6593183620046 53.65049248981167 15.0
  endloop
endfacet
facet normal -0.0 0.0 1.0
  outer loop
    vertex 70.65931836200461 53.445411489811654 15.0
    vertex 65.6593183620046 53.65049248981167 15.0
    vertex 65.6593183620046 53.445411489811654 15.0
  endloop
endfacet
facet normal -0.0 0.0 1.0
  outer loop
    vertex 65.6593183620046 53.65049248981167 15.0
    vertex 70.65931836200461 53.445411489811654 15.0
    vertex 65.6593183620046 54.65049248981166 15.0
  endloop
endfacet
facet normal -0.0 0.0 1.0
  outer loop
    vertex 65.6593183620046 54.65049248981166 15.0
    vertex 70.65931836200461 53.445411489811654 15.0
    vertex 70.65931836200461 54.65049248981166 15.0
  endloop
endfacet
facet normal -0.0 0.0 1.0
  outer loop
    vertex 70.65931836200461 54.65049248981166 15.0
    vertex 70.65931836200461 53.445411489811654 15.0
    vertex 70.65931836200461 53.65049248981167 15.0
  endloop
endfacet
facet normal 1.0 -0.0 -0.0
  outer loop
    vertex 70.65931836200461 53.9695432468302 12.0
    vertex 70.65931836200461 53.65049248981167 15.0
    vertex 70.65931836200461 53.65049248981167 12.0
  endloop
endfacet
facet normal 1.0 -0.0 -0.0
  outer loop
    vertex 70.65931836200461 53.65049248981167 15.0
    vertex 70.65931836200461 53.9695432468302 12.0
    vertex 70.65931836200461 54.65049248981166 15.0
  endloop
endfacet
facet normal 0.0 0.0 -1.0
  outer loop
    vertex 70.65931836200461 53.9695432468302 12.0
    vertex 65.6593183620046 53.65049248981167 12.0
    vertex 65.6593183620046 53.9695432468302 12.0
  endloop
endfacet
facet normal 0.0 0.0 -1.0
  outer loop
    vertex 65.6593183620046 53.65049248981167 12.0
    vertex 70.65931836200461 53.9695432468302 12.0
    vertex 70.65931836200461 53.65049248981167 12.0
  endloop
endfacet
facet normal -1.0 0.0 0.0
  outer loop
    vertex 65.6593183620046 54.65049248981166 15.0
    vertex 65.6593183620046 53.65049248981167 12.0
    vertex 65.6593183620046 53.65049248981167 15.0
  endloop
endfacet
facet normal -1.0 0.0 0.0
  outer loop
    vertex 65.6593183620046 53.65049248981167 12.0
    vertex 65.6593183620046 54.65049248981166 15.0
    vertex 65.6593183620046 53.9695432468302 12.0
  endloop
endfacet
facet normal -0.0 0.9751938615131968 -0.22135250725252673
  outer loop
    vertex 65.6593183620046 54.65049248981166 15.0
    vertex 70.65931836200461 53.9695432468302 12.0
    vertex 65.6593183620046 53.9695432468302 12.0
  endloop
endfacet
facet normal -0.0 0.9751938615131968 -0.22135250725252673
  outer loop
    vertex 70.65931836200461 53.9695432468302 12.0
    vertex 65.6593183620046 54.65049248981166 15.0
    vertex 70.65931836200461 54.65049248981166 15.0
  endloop
endfacet
facet normal 1.0 -0.0 -0.0
  outer loop
    vertex 93.65931836200461 52.65049248981167 15.0
    vertex 93.65931836200461 41.15049248981167 16.0
    vertex 93.65931836200461 41.15049248981167 15.0
  endloop
endfacet
facet normal 1.0 -0.0 -0.0
  outer loop
    vertex 93.65931836200461 41.15049248981167 16.0
    vertex 93.65931836200461 52.65049248981167 15.0
    vertex 93.65931836200461 52.65049248981167 16.0
  endloop
endfacet
facet normal 1.2971326966641655e-18 7.769929691076133e-17 1.0
  outer loop
    vertex 41.659318362004605 39.65049248981167 20.0
    vertex 42.659318362004605 40.65049248981167 20.0
    vertex 41.659318362004605 53.65049248981167 20.0
  endloop
endfacet
facet normal 1.2971326966641655e-18 7.769929691076133e-17 1.0
  outer loop
    vertex 42.659318362004605 40.65049248981167 20.0
    vertex 41.659318362004605 39.65049248981167 20.0
    vertex 94.65931836200461 39.65049248981167 20.0
  endloop
endfacet
facet normal 1.2971326966641655e-18 7.769929691076133e-17 1.0
  outer loop
    vertex 42.659318362004605 40.65049248981167 20.0
    vertex 94.65931836200461 39.65049248981167 20.0
    vertex 93.65931836200461 40.65049248981167 20.0
  endloop
endfacet
facet normal 1.2971326966641655e-18 7.769929691076133e-17 1.0
  outer loop
    vertex 93.65931836200461 40.65049248981167 20.0
    vertex 94.65931836200461 39.65049248981167 20.0
    vertex 93.65931836200461 52.65049248981167 20.0
  endloop
endfacet
facet normal 1.2971326966641655e-18 7.769929691076133e-17 1.0
  outer loop
    vertex 93.65931836200461 52.65049248981167 20.0
    vertex 70.65931836200461 53.445411489811654 19.999999999999996
    vertex 70.65931836200461 52.65049248981167 19.999999999999996
  endloop
endfacet
facet normal 1.2971326966641655e-18 7.769929691076133e-17 1.0
  outer loop
    vertex 70.65931836200461 53.445411489811654 19.999999999999996
    vertex 93.65931836200461 52.65049248981167 20.0
    vertex 70.65931836200461 53.65049248981167 19.999999999999996
  endloop
endfacet
facet normal 1.2971326966641655e-18 7.769929691076133e-17 1.0
  outer loop
    vertex 70.65931836200461 53.65049248981167 19.999999999999996
    vertex 93.65931836200461 52.65049248981167 20.0
    vertex 94.65931836200461 53.65049248981167 20.0
  endloop
endfacet
facet normal 1.2971326966641655e-18 7.769929691076133e-17 1.0
  outer loop
    vertex 94.65931836200461 53.65049248981167 20.0
    vertex 93.65931836200461 52.65049248981167 20.0
    vertex 94.65931836200461 39.65049248981167 20.0
  endloop
endfacet
facet normal 1.2971326966641655e-18 7.769929691076133e-17 1.0
  outer loop
    vertex 41.659318362004605 53.65049248981167 20.0
    vertex 42.659318362004605 52.65049248981167 20.0
    vertex 65.6593183620046 53.65049248981167 20.0
  endloop
endfacet
facet normal 1.2971326966641655e-18 7.769929691076133e-17 1.0
  outer loop
    vertex 42.659318362004605 52.65049248981167 20.0
    vertex 41.659318362004605 53.65049248981167 20.0
    vertex 42.659318362004605 40.65049248981167 20.0
  endloop
endfacet
facet normal 1.2971326966641655e-18 7.769929691076133e-17 1.0
  outer loop
    vertex 65.6593183620046 53.65049248981167 20.0
    vertex 42.659318362004605 52.65049248981167 20.0
    vertex 65.6593183620046 52.65049248981167 19.999999999999996
  endloop
endfacet
facet normal 1.2971326966641655e-18 7.769929691076133e-17 1.0
  outer loop
    vertex 65.6593183620046 53.65049248981167 20.0
    vertex 65.6593183620046 52.65049248981167 19.999999999999996
    vertex 65.6593183620046 53.445411489811654 20.0
  endloop
endfacet
facet normal 0.0 1.0 0.0
  outer loop
    vertex 65.6593183620046 53.445411489811654 20.0
    vertex 70.65931836200461 53.445411489811654 15.0
    vertex 65.6593183620046 53.445411489811654 15.0
  endloop
endfacet
facet normal 0.0 1.0 0.0
  outer loop
    vertex 70.65931836200461 53.445411489811654 15.0
    vertex 65.6593183620046 53.445411489811654 20.0
    vertex 70.65931836200461 53.445411489811654 19.999999999999996
  endloop
endfacet
facet normal -1.0 -0.0 -0.0
  outer loop
    vertex 70.65931836200461 53.65049248981167 19.999999999999996
    vertex 70.65931836200461 53.445411489811654 15.0
    vertex 70.65931836200461 53.445411489811654 19.999999999999996
  endloop
endfacet
facet normal -1.0 -0.0 -0.0
  outer loop
    vertex 70.65931836200461 53.445411489811654 15.0
    vertex 70.65931836200461 53.65049248981167 19.999999999999996
    vertex 70.65931836200461 53.65049248981167 15.0
  endloop
endfacet
facet normal 1.0 -0.0 -0.0
  outer loop
    vertex 65.6593183620046 53.65049248981167 15.0
    vertex 65.6593183620046 53.445411489811654 20.0
    vertex 65.6593183620046 53.445411489811654 15.0
  endloop
endfacet
facet normal 1.0 -0.0 -0.0
  outer loop
    vertex 65.6593183620046 53.445411489811654 20.0
    vertex 65.6593183620046 53.65049248981167 15.0
    vertex 65.6593183620046 53.65049248981167 20.0
  endloop
endfacet
facet normal 9.003578169752005e-07 -0.9999999928906949 -0.00011923841604715917
  outer loop
    vertex 88.35907436200462 39.331590636627155 14.999999964243745
    vertex 45.659318362004605 39.332108489811674 0.0
    vertex 88.35907436200462 39.332108489811674 0.0
  endloop
endfacet
facet normal 9.003578169752005e-07 -0.9999999928906949 -0.00011923841604715917
  outer loop
    vertex 45.659318362004605 39.332108489811674 0.0
    vertex 88.35907436200462 39.331590636627155 14.999999964243745
    vertex 45.659318362004605 39.332108489811674 15.0
  endloop
endfacet
facet normal -1.0 0.0 0.0
  outer loop
    vertex 41.659318362004605 53.65049248981167 20.0
    vertex 41.659318362004605 39.65049248981167 15.0
    vertex 41.659318362004605 39.65049248981167 20.0
  endloop
endfacet
facet normal -1.0 0.0 0.0
  outer loop
    vertex 41.659318362004605 39.65049248981167 15.0
    vertex 41.659318362004605 53.65049248981167 20.0
    vertex 41.659318362004605 41.15049248981167 15.0
  endloop
endfacet
facet normal -1.0 0.0 0.0
  outer loop
    vertex 41.659318362004605 41.15049248981167 15.0
    vertex 41.659318362004605 53.65049248981167 20.0
    vertex 41.659318362004605 52.65049248981167 15.0
  endloop
endfacet
facet normal -1.0 0.0 0.0
  outer loop
    vertex 41.659318362004605 52.65049248981167 15.0
    vertex 41.659318362004605 53.65049248981167 20.0
    vertex 41.659318362004605 53.65049248981167 15.0
  endloop
endfacet
facet normal 0.0 0.0 -1.0
  outer loop
    vertex 88.35907436200462 41.15049248981167 0.0
    vertex 45.659318362004605 39.332108489811674 0.0
    vertex 45.659318362004605 41.15049248981167 0.0
  endloop
endfacet
facet normal 0.0 0.0 -1.0
  outer loop
    vertex 45.659318362004605 39.332108489811674 0.0
    vertex 88.35907436200462 41.15049248981167 0.0
    vertex 88.35907436200462 39.332108489811674 0.0
  endloop
endfacet
facet normal 0.9999999997493181 2.2113617801831242e-05 3.5145132017513702e-06
  outer loop
    vertex 88.35907436200462 39.332108489811674 0.0
    vertex 88.35898247015875 39.604330879849535 14.999449974142584
    vertex 88.35907436200462 39.331590636627155 14.999999964243745
  endloop
endfacet
facet normal 0.9999999997493181 2.2113617801831242e-05 3.5145132017513702e-06
  outer loop
    vertex 88.35898247015875 39.604330879849535 14.999449974142584
    vertex 88.35907436200462 39.332108489811674 0.0
    vertex 88.35907436200462 41.15049248981167 0.0
  endloop
endfacet
facet normal 0.9999999997493181 2.2113617801831242e-05 3.5145132017513702e-06
  outer loop
    vertex 88.35898247015875 39.604330879849535 14.999449974142584
    vertex 88.35907436200462 41.15049248981167 0.0
    vertex 88.3590744664093 39.65049248981154 14.999449957234868
  endloop
endfacet
facet normal 0.9999999997493181 2.2113617801831242e-05 3.5145132017513702e-06
  outer loop
    vertex 88.3590744664093 39.65049248981154 14.999449957234868
    vertex 88.35907436200462 41.15049248981167 0.0
    vertex 88.35898247015875 41.149260879849535 14.999449974142584
  endloop
endfacet
facet normal -0.00011175111038153335 0.01429514457099472 0.9998978129555959
  outer loop
    vertex 88.35907436200462 39.331590636627155 14.999999964243745
    vertex 45.659318362004605 39.65049248981167 14.9907945
    vertex 45.659318362004605 39.332108489811674 15.0
  endloop
endfacet
facet normal -0.00011175111038153335 0.01429514457099472 0.9998978129555959
  outer loop
    vertex 45.659318362004605 39.65049248981167 14.9907945
    vertex 88.35907436200462 39.331590636627155 14.999999964243745
    vertex 88.35898247015875 39.604330879849535 14.999449974142584
  endloop
endfacet
facet normal -0.00011175111038153335 0.01429514457099472 0.9998978129555959
  outer loop
    vertex 88.3590744664093 39.65049248981154 14.999449957234868
    vertex 45.659318362004605 39.65049248981167 14.9907945
    vertex 88.35898247015875 39.604330879849535 14.999449974142584
  endloop
endfacet
facet normal -0.0 -0.0 1.0
  outer loop
    vertex 93.65931836200461 40.65049248981167 19.0
    vertex 42.659318362004605 52.65049248981167 19.0
    vertex 42.659318362004605 40.65049248981167 19.0
  endloop
endfacet
facet normal -0.0 -0.0 1.0
  outer loop
    vertex 42.659318362004605 52.65049248981167 19.0
    vertex 93.65931836200461 40.65049248981167 19.0
    vertex 93.65931836200461 52.65049248981167 19.0
  endloop
endfacet
facet normal -1.0 0.0 0.0
  outer loop
    vertex 93.65931836200461 52.65049248981167 20.0
    vertex 93.65931836200461 40.65049248981167 19.0
    vertex 93.65931836200461 40.65049248981167 20.0
  endloop
endfacet
facet normal -1.0 0.0 0.0
  outer loop
    vertex 93.65931836200461 40.65049248981167 19.0
    vertex 93.65931836200461 52.65049248981167 20.0
    vertex 93.65931836200461 52.65049248981167 19.0
  endloop
endfacet
facet normal -1.1539104693365928e-15 -1.0 9.795363023784876e-15
  outer loop
    vertex 88.3590744664093 39.65049248981154 14.999449957234868
    vertex 42.659315713855186 39.65049248981167 14.998849318594385
    vertex 45.659318362004605 39.65049248981167 14.9907945
  endloop
endfacet
facet normal -1.1539104693365928e-15 -1.0 9.795363023784876e-15
  outer loop
    vertex 42.659315713855186 39.65049248981167 14.998849318594385
    vertex 88.3590744664093 39.65049248981154 14.999449957234868
    vertex 41.659318362004605 39.65049248981167 15.0
  endloop
endfacet
facet normal -1.1539104693365928e-15 -1.0 9.795363023784876e-15
  outer loop
    vertex 41.659318362004605 39.65049248981167 15.0
    vertex 88.3590744664093 39.65049248981154 14.999449957234868
    vertex 94.65931836200461 39.65049248981167 15.0
  endloop
endfacet
facet normal -1.1539104693365928e-15 -1.0 9.795363023784876e-15
  outer loop
    vertex 41.659318362004605 39.65049248981167 15.0
    vertex 94.65931836200461 39.65049248981167 15.0
    vertex 94.65931836200461 39.65049248981167 20.0
  endloop
endfacet
facet normal -1.1539104693365928e-15 -1.0 9.795363023784876e-15
  outer loop
    vertex 41.659318362004605 39.65049248981167 15.0
    vertex 94.65931836200461 39.65049248981167 20.0
    vertex 41.659318362004605 39.65049248981167 20.0
  endloop
endfacet
facet normal -0.00011175111038153335 0.01429514457099472 0.9998978129555959
  outer loop
    vertex 88.3590744664093 39.65049248981154 14.999449957234868
    vertex 45.659318362004605 39.65049248981167 14.9907945
    vertex 88.35898247015875 39.604330879849535 14.999449974142584
  endloop
endfacet
facet normal -0.00011175111038153335 0.01429514457099472 0.9998978129555959
  outer loop
    vertex 88.35907436200462 39.331590636627155 14.999999964243745
    vertex 45.659318362004605 39.65049248981167 14.9907945
    vertex 45.659318362004605 39.332108489811674 15.0
  endloop
endfacet
facet normal -0.00011175111038153335 0.01429514457099472 0.9998978129555959
  outer loop
    vertex 45.659318362004605 39.65049248981167 14.9907945
    vertex 88.35907436200462 39.331590636627155 14.999999964243745
    vertex 88.35898247015875 39.604330879849535 14.999449974142584
  endloop
endfacet
facet normal -0.00011175111038153335 0.01429514457099472 0.9998978129555959
  outer loop
    vertex 88.3590744664093 39.65049248981154 14.999449957234868
    vertex 45.659318362004605 39.65049248981167 14.9907945
    vertex 88.35898247015875 39.604330879849535 14.999449974142584
  endloop
endfacet
facet normal -0.00011175111038153335 0.01429514457099472 0.9998978129555959
  outer loop
    vertex 88.35907436200462 39.331590636627155 14.999999964243745
    vertex 45.659318362004605 39.65049248981167 14.9907945
    vertex 45.659318362004605 39.332108489811674 15.0
  endloop
endfacet
facet normal -0.00011175111038153335 0.01429514457099472 0.9998978129555959
  outer loop
    vertex 45.659318362004605 39.65049248981167 14.9907945
    vertex 88.35907436200462 39.331590636627155 14.999999964243745
    vertex 88.35898247015875 39.604330879849535 14.999449974142584
  endloop
endfacet
facet normal -2.4443084729969985e-05 0.9999999984065007 5.088746709209879e-05
  outer loop
    vertex 45.659318362004605 41.15049248981167 14.981589000000003
    vertex 88.35907436200462 41.15049248981167 0.0
    vertex 45.659318362004605 41.15049248981167 0.0
  endloop
endfacet
facet normal -2.4443084729969985e-05 0.9999999984065007 5.088746709209879e-05
  outer loop
    vertex 88.35907436200462 41.15049248981167 0.0
    vertex 45.659318362004605 41.15049248981167 14.981589000000003
    vertex 88.35898247015875 41.149260879849535 14.999449974142584
  endloop
endfacet
facet normal -2.4443084729969985e-05 0.9999999984065007 5.088746709209879e-05
  outer loop
    vertex 88.35898247015875 41.149260879849535 14.999449974142584
    vertex 45.659318362004605 41.15049248981167 14.981589000000003
    vertex 45.659318362004605 41.15049248981167 16.0
  endloop
endfacet
facet normal -2.4443084729969985e-05 0.9999999984065007 5.088746709209879e-05
  outer loop
    vertex 88.35898247015875 41.149260879849535 14.999449974142584
    vertex 45.659318362004605 41.15049248981167 16.0
    vertex 93.65931836200461 41.15049248981167 15.0
  endloop
endfacet
facet normal -2.4443084729969985e-05 0.9999999984065007 5.088746709209879e-05
  outer loop
    vertex 93.65931836200461 41.15049248981167 15.0
    vertex 45.659318362004605 41.15049248981167 16.0
    vertex 93.65931836200461 41.15049248981167 16.0
  endloop
endfacet
facet normal -2.4443084729969985e-05 0.9999999984065007 5.088746709209879e-05
  outer loop
    vertex 93.65931836200461 41.15049248981167 16.0
    vertex 45.659318362004605 41.15049248981167 16.0
    vertex 88.35907436200462 41.15049248981167 16.0
  endloop
endfacet
facet normal -2.4443084729969985e-05 0.9999999984065007 5.088746709209879e-05
  outer loop
    vertex 93.65931836200461 41.15049248981167 16.0
    vertex 88.35907436200462 41.15049248981167 16.0
    vertex 92.65931836200461 41.15049248981167 16.0
  endloop
endfacet
facet normal 0.0 0.0 -1.0
  outer loop
    vertex 93.65931836200461 52.65049248981167 16.0
    vertex 42.659318362004605 41.15049248981167 16.0
    vertex 42.659318362004605 52.65049248981167 16.0
  endloop
endfacet
facet normal 0.0 0.0 -1.0
  outer loop
    vertex 42.659318362004605 41.15049248981167 16.0
    vertex 93.65931836200461 52.65049248981167 16.0
    vertex 45.659318362004605 41.15049248981167 16.0
  endloop
endfacet
facet normal 0.0 0.0 -1.0
  outer loop
    vertex 45.659318362004605 41.15049248981167 16.0
    vertex 93.65931836200461 52.65049248981167 16.0
    vertex 88.35907436200462 41.15049248981167 16.0
  endloop
endfacet
facet normal 0.0 0.0 -1.0
  outer loop
    vertex 88.35907436200462 41.15049248981167 16.0
    vertex 93.65931836200461 52.65049248981167 16.0
    vertex 92.65931836200461 41.15049248981167 16.0
  endloop
endfacet
facet normal 0.0 0.0 -1.0
  outer loop
    vertex 92.65931836200461 41.15049248981167 16.0
    vertex 93.65931836200461 52.65049248981167 16.0
    vertex 93.65931836200461 41.15049248981167 16.0
  endloop
endfacet
facet normal -0.0 1.0 -0.0
  outer loop
    vertex 42.659318362004605 41.15049248981167 15.0
    vertex 45.659318362004605 41.15049248981167 16.0
    vertex 45.659318362004605 41.15049248981167 14.981589000000003
  endloop
endfacet
facet normal -0.0 1.0 -0.0
  outer loop
    vertex 45.659318362004605 41.15049248981167 16.0
    vertex 42.659318362004605 41.15049248981167 15.0
    vertex 42.659318362004605 41.15049248981167 16.0
  endloop
endfacet
facet normal -1.0 0.0 0.0
  outer loop
    vertex 45.659318362004605 39.65049248981167 14.9907945
    vertex 45.659318362004605 39.332108489811674 0.0
    vertex 45.659318362004605 39.332108489811674 15.0
  endloop
endfacet
facet normal -1.0 0.0 0.0
  outer loop
    vertex 45.659318362004605 39.332108489811674 0.0
    vertex 45.659318362004605 39.65049248981167 14.9907945
    vertex 45.659318362004605 41.15049248981167 0.0
  endloop
endfacet
facet normal -1.0 0.0 0.0
  outer loop
    vertex 45.659318362004605 41.15049248981167 0.0
    vertex 45.659318362004605 39.65049248981167 14.9907945
    vertex 45.659318362004605 41.15049248981167 14.981589000000003
  endloop
endfacet
facet normal -0.0 -0.0 1.0
  outer loop
    vertex 42.659318362004605 41.15049248981167 15.0
    vertex 41.659318362004605 52.65049248981167 15.0
    vertex 41.659318362004605 41.15049248981167 15.0
  endloop
endfacet
facet normal -0.0 -0.0 1.0
  outer loop
    vertex 41.659318362004605 52.65049248981167 15.0
    vertex 42.659318362004605 41.15049248981167 15.0
    vertex 42.659318362004605 52.65049248981167 15.0
  endloop
endfacet
facet normal -0.0 -0.0 1.0
  outer loop
    vertex 42.659318362004605 52.65049248981167 15.0
    vertex 41.659318362004605 53.65049248981167 15.0
    vertex 41.659318362004605 52.65049248981167 15.0
  endloop
endfacet
facet normal -0.0 -0.0 1.0
  outer loop
    vertex 41.659318362004605 53.65049248981167 15.0
    vertex 42.659318362004605 52.65049248981167 15.0
    vertex 57.6593183620046 53.65049248981167 15.0
  endloop
endfacet
facet normal -0.0 -0.0 1.0
  outer loop
    vertex 57.6593183620046 53.65049248981167 15.0
    vertex 42.659318362004605 52.65049248981167 15.0
    vertex 57.6593183620046 52.65049248981167 15.0
  endloop
endfacet
facet normal 0.0005753405652608995 -0.00038356088470453963 0.9999997609321124
  outer loop
    vertex 42.659315713855186 39.65049248981167 14.998849318594385
    vertex 41.659318362004605 41.15049248981167 15.0
    vertex 41.659318362004605 39.65049248981167 15.0
  endloop
endfacet
facet normal 0.0005753405652608995 -0.00038356088470453963 0.9999997609321124
  outer loop
    vertex 41.659318362004605 41.15049248981167 15.0
    vertex 42.659315713855186 39.65049248981167 14.998849318594385
    vertex 42.659318362004605 41.15049248981167 15.0
  endloop
endfacet
facet normal 0.004410908247949045 0.0026848998409541775 0.9999866675117586
  outer loop
    vertex 45.659318362004605 39.65049248981167 14.9907945
    vertex 42.659318362004605 41.15049248981167 15.0
    vertex 42.659315713855186 39.65049248981167 14.998849318594385
  endloop
endfacet
facet normal 0.004410908247949045 0.0026848998409541775 0.9999866675117586
  outer loop
    vertex 42.659318362004605 41.15049248981167 15.0
    vertex 45.659318362004605 39.65049248981167 14.9907945
    vertex 45.659318362004605 41.15049248981167 14.981589000000003
  endloop
endfacet
facet normal 0.004410908247949046 0.002684899840954178 0.9999866675117586
  outer loop
    vertex 45.659318362004605 39.65049248981167 14.9907945
    vertex 42.659318362004605 41.15049248981167 15.0
    vertex 42.659315713855186 39.65049248981167 14.998849318594385
  endloop
endfacet
facet normal 0.004410908247949046 0.002684899840954178 0.9999866675117586
  outer loop
    vertex 42.659318362004605 41.15049248981167 15.0
    vertex 45.659318362004605 39.65049248981167 14.9907945
    vertex 45.659318362004605 41.15049248981167 14.981589000000003
  endloop
endfacet
facet normal -0.0 1.0 -0.0
  outer loop
    vertex 78.65931836200461 53.65049248981167 11.000000000000002
    vertex 70.65931836200461 53.65049248981167 12.0
    vertex 78.65931836200461 53.65049248981167 15.0
  endloop
endfacet
facet normal -0.0 1.0 -0.0
  outer loop
    vertex 70.65931836200461 53.65049248981167 12.0
    vertex 78.65931836200461 53.65049248981167 11.000000000000002
    vertex 65.6593183620046 53.65049248981167 12.0
  endloop
endfacet
facet normal -0.0 1.0 -0.0
  outer loop
    vertex 78.65931836200461 53.65049248981167 15.0
    vertex 70.65931836200461 53.65049248981167 12.0
    vertex 70.65931836200461 53.65049248981167 15.0
  endloop
endfacet
facet normal -0.0 1.0 -0.0
  outer loop
    vertex 78.65931836200461 53.65049248981167 15.0
    vertex 70.65931836200461 53.65049248981167 15.0
    vertex 70.65931836200461 53.65049248981167 19.999999999999996
  endloop
endfacet
facet normal -0.0 1.0 -0.0
  outer loop
    vertex 78.65931836200461 53.65049248981167 15.0
    vertex 70.65931836200461 53.65049248981167 19.999999999999996
    vertex 94.65931836200461 53.65049248981167 15.0
  endloop
endfacet
facet normal -0.0 1.0 -0.0
  outer loop
    vertex 94.65931836200461 53.65049248981167 15.0
    vertex 70.65931836200461 53.65049248981167 19.999999999999996
    vertex 94.65931836200461 53.65049248981167 20.0
  endloop
endfacet
facet normal -0.0 1.0 -0.0
  outer loop
    vertex 41.659318362004605 53.65049248981167 20.0
    vertex 57.6593183620046 53.65049248981167 15.0
    vertex 41.659318362004605 53.65049248981167 15.0
  endloop
endfacet
facet normal -0.0 1.0 -0.0
  outer loop
    vertex 57.6593183620046 53.65049248981167 15.0
    vertex 41.659318362004605 53.65049248981167 20.0
    vertex 65.6593183620046 53.65049248981167 15.0
  endloop
endfacet
facet normal -0.0 1.0 -0.0
  outer loop
    vertex 65.6593183620046 53.65049248981167 15.0
    vertex 41.659318362004605 53.65049248981167 20.0
    vertex 65.6593183620046 53.65049248981167 20.0
  endloop
endfacet
facet normal -0.0 1.0 -0.0
  outer loop
    vertex 57.6593183620046 53.65049248981167 11.000000000000002
    vertex 65.6593183620046 53.65049248981167 12.0
    vertex 78.65931836200461 53.65049248981167 11.000000000000002
  endloop
endfacet
facet normal -0.0 1.0 -0.0
  outer loop
    vertex 65.6593183620046 53.65049248981167 12.0
    vertex 57.6593183620046 53.65049248981167 11.000000000000002
    vertex 57.6593183620046 53.65049248981167 15.0
  endloop
endfacet
facet normal -0.0 1.0 -0.0
  outer loop
    vertex 65.6593183620046 53.65049248981167 12.0
    vertex 57.6593183620046 53.65049248981167 15.0
    vertex 65.6593183620046 53.65049248981167 15.0
  endloop
endfacet
facet normal -1.0 0.0 -0.0
  outer loop
    vertex 78.65931836200461 53.65049248981167 15.0
    vertex 78.65931836200461 52.65049248981167 11.000000000000002
    vertex 78.65931836200461 52.65049248981167 15.0
  endloop
endfacet
facet normal -1.0 0.0 -0.0
  outer loop
    vertex 78.65931836200461 52.65049248981167 11.000000000000002
    vertex 78.65931836200461 53.65049248981167 15.0
    vertex 78.65931836200461 53.65049248981167 11.000000000000002
  endloop
endfacet
endsolid gehäuse_verschluss_sketchup
